<?xml version="1.0" standalone="no"?><!DOCTYPE svg PUBLIC "-//W3C//DTD SVG 1.1//EN" "http://www.w3.org/Graphics/SVG/1.1/DTD/svg11.dtd"><svg t="1734710426656" class="icon" viewBox="0 0 1024 1024" version="1.1" xmlns="http://www.w3.org/2000/svg" p-id="1812" xmlns:xlink="http://www.w3.org/1999/xlink" width="512" height="512"><path d="M104.79098779 63.05263174h813.71805116v700.77834141H105.49096105L104.79098779 63.05263174z" fill="#D07C3F" p-id="1813"></path><path d="M62.70175478 231.4077831v678.33110743c0 32.96998828 26.65598028 51.20847773 59.62596769 51.20847773H900.97052276c32.96998828 0 59.62596854-18.23848945 59.62596855-51.20847773V231.4077831c0 0.70175481-897.19298262 0-897.8947365 0z m126.26591837-111.53620019L104.79098779 63.05263174V203.34829502h84.17846602l-0.00178066-83.47671211zM918.5072583 63.05263174l-84.17846689 56.11897704V203.34829502h84.17846689V63.05263174z" fill="#EEC65D" p-id="1814"></path><path d="M188.96767315 231.4077831V119.16982813L62 231.4077831h126.96767315z m645.3628998-112.23795498v112.23617432h127.66942705l-127.66942705-112.23617432z" fill="#DCA34F" p-id="1815"></path><path d="M261.92163184 392.74717255c-21.04372617 0-38.58224238 17.53673556-38.58224239 38.58224239s16.83498076 38.58224238 38.58224239 38.58224238c21.04372617 0 38.58224238-17.53673556 38.58224237-38.58224238 0.70175481-21.04372617-16.8367623-38.58224238-38.58224237-38.58224239z m469.99198476 0c-21.04372617 0-38.58224238 17.53673556-38.58224238 38.58224239s16.83498076 38.58224238 38.58224239 38.58224238c21.04372617 0 38.58224238-17.53673556 38.58224237-38.58224238 0.69997324-21.04372617-16.8367623-38.58224238-38.58224237-38.58224239z" fill="#D07C3F" p-id="1816"></path><path d="M497.61848779 715.4295128c-139.59390849 0-252.53361825-123.46068252-252.53361826-275.68260704 0-10.52275342 7.71573604-18.94024425 17.53673555-18.94024423s17.53673556 8.41749083 17.53673466 18.94024423c0 131.17641857 97.50645614 237.10036553 217.45836737 237.10036465s217.45836651-106.62570087 217.45836654-237.10036465c0-10.52275342 7.71573604-18.94024425 17.53673465-18.94024423s17.53673556 8.41749083 17.53673555 18.94024423c0.00356221 152.22192539-113.6361208 275.68260791-252.53005606 275.68260702z" fill="#CBA94F" p-id="1817"></path><path d="M497.61848779 693.68225117c-139.59390849 0-252.53361825-114.34143691-252.53361826-255.33885498 0-9.82099951 7.71573604-17.53673556 17.53673555-17.53673466s17.53673556 7.71573604 17.53673466 17.53673466c0 121.35541904 97.50645614 220.26538388 217.45836737 220.26538477s217.45836651-98.90818418 217.45836654-220.26538477c0-9.82099951 7.71573604-17.53673556 17.53673465-17.53673466s17.53673556 7.71573604 17.53673555 17.53673466c0.00356221 140.99919873-113.6361208 255.33885498-252.53005606 255.33885498z" fill="#FFFFFF" p-id="1818"></path></svg>